<?xml version="1.0" encoding="UTF-8" standalone="yes"?>
<!DOCTYPE svg PUBLIC "-//W3C//DTD SVG 1.1//EN" "http://www.w3.org/Graphics/SVG/1.1/DTD/svg11.dtd">

<svg width="500" height="500" viewBox="0 0 500 500" xmlns="http://www.w3.org/2000/svg" xmlns:xlink="http://www.w3.org/1999/xlink" version="1.1" baseProfile="full">
    <g transform="scale(1,-1) translate(0,-500)">
        <path d="M 481.000000 241.000000 C 481.000000 373.548340 373.548340 481.000000 241.000000 481.000000 C 108.451660 481.000000 1.000000 373.548340 1.000000 241.000000 C 1.000000 108.451660 108.451660 1.000000 241.000000 1.000000 C 373.548340 1.000000 481.000000 108.451660 481.000000 241.000000 Z" transform="scale(1.000000,1.000000) translate(9.000000,9.000000)" fill="#ffffff" opacity="1.000000"></path>
        <path d="M 215.019997 1.220005 Q 197.859998 1.220005 190.839998 4.340005 Q 183.819999 7.460005 171.339999 19.940004 L 98.540002 92.740001 Q 85.540002 105.740001 72.540003 106.780001 Q 7.540005 117.180001 1.820005 193.619998 L 1.820005 235.219996 Q 1.820005 247.179996 11.960005 254.979995 Q 22.100004 262.779995 38.220004 262.779995 Q 54.340003 262.779995 64.480003 254.979995 Q 74.620003 247.179996 74.620003 235.219996 L 74.620003 193.619998 Q 74.620003 178.019998 90.220002 178.019998 L 256.619996 178.019998 Q 268.579995 178.019998 276.379995 167.879999 Q 284.179995 157.739999 284.179995 141.620000 Q 284.179995 125.500000 276.379995 115.360001 Q 268.579995 105.220001 256.619996 105.220001 L 194.219998 105.220001 Q 190.579998 105.220001 190.579998 103.660001 L 211.379997 82.340002 Q 222.819997 74.020002 235.819997 74.020002 L 256.619996 74.020002 Q 268.579995 74.020002 276.379995 63.880002 Q 284.179995 53.740003 284.179995 37.620003 Q 284.179995 21.500004 276.379995 11.360004 Q 268.579995 1.220005 256.619996 1.220005 Z M 38.220004 1.220005 Q 22.620004 1.220005 12.220005 11.620004 Q 1.820005 22.020004 1.820005 37.620003 Q 1.820005 52.700003 12.480005 63.360003 Q 23.140004 74.020002 38.220004 74.020002 Q 52.780003 74.020002 63.700003 63.100003 Q 74.620003 52.180003 74.620003 37.620003 Q 74.620003 22.540004 63.960003 11.880004 Q 53.300003 1.220005 38.220004 1.220005 Z" transform="scale(1.000000,1.000000) translate(107.000000,118.000000)" opacity="1.000000"></path>
        <path d="M 462.000000 243.000000 C 462.000000 363.950360 363.950360 462.000000 243.000000 462.000000 C 122.049640 462.000000 24.000000 363.950360 24.000000 243.000000 C 24.000000 122.049640 122.049640 24.000000 243.000000 24.000000 C 363.950360 24.000000 462.000000 122.049640 462.000000 243.000000 Z M 485.000000 243.000000 C 485.000000 109.347091 376.652909 1.000000 243.000000 1.000000 C 109.347091 1.000000 1.000000 109.347091 1.000000 243.000000 C 1.000000 376.652909 109.347091 485.000000 243.000000 485.000000 C 376.652909 485.000000 485.000000 376.652909 485.000000 243.000000 Z" transform="scale(1.000000,1.000000) translate(7.000000,7.000000)" opacity="1.000000"></path>
    </g>
</svg>