<?xml version="1.0" encoding="UTF-8" standalone="no"?>
<!DOCTYPE svg PUBLIC "-//W3C//DTD SVG 1.1//EN"
 "http://www.w3.org/Graphics/SVG/1.1/DTD/svg11.dtd">
<!-- Generated by graphviz version 2.40.1 (20161225.0304)
 -->
<!-- Title: dependencies Pages: 1 -->
<svg width="1510pt" height="284pt"
 viewBox="0.00 0.00 1510.00 284.00" xmlns="http://www.w3.org/2000/svg" xmlns:xlink="http://www.w3.org/1999/xlink">
<g id="graph0" class="graph" transform="scale(1 1) rotate(0) translate(4 280)">
<title>dependencies</title>
<polygon fill="#ffffff" stroke="transparent" points="-4,4 -4,-280 1506,-280 1506,4 -4,4"/>
<text text-anchor="start" x="730.0091" y="-42.4" font-family="sans-serif" font-weight="bold" font-size="14.00" fill="#000000">Legend</text>
<polygon fill="#ffffb3" stroke="transparent" points="517,-10 517,-30 537,-30 537,-10 517,-10"/>
<text text-anchor="start" x="540.629" y="-15.4" font-family="sans-serif" font-size="14.00" fill="#000000"> &#160;Declarations</text>
<polygon fill="#8dd3c7" stroke="transparent" points="630,-10 630,-30 650,-30 650,-10 630,-10"/>
<text text-anchor="start" x="653.7251" y="-15.4" font-family="sans-serif" font-size="14.00" fill="#000000"> &#160;Module</text>
<polygon fill="#80b1d3" stroke="transparent" points="716,-10 716,-30 736,-30 736,-10 716,-10"/>
<text text-anchor="start" x="739.7812" y="-15.4" font-family="sans-serif" font-size="14.00" fill="#000000"> &#160;Bootstrap</text>
<polygon fill="#fdb462" stroke="transparent" points="813,-10 813,-30 833,-30 833,-10 813,-10"/>
<text text-anchor="start" x="836.6732" y="-15.4" font-family="sans-serif" font-size="14.00" fill="#000000"> &#160;Providers</text>
<polygon fill="#fb8072" stroke="transparent" points="909,-10 909,-30 929,-30 929,-10 909,-10"/>
<text text-anchor="start" x="932.7258" y="-15.4" font-family="sans-serif" font-size="14.00" fill="#000000"> &#160;Exports</text>
<g id="clust1" class="cluster">
<title>cluster_KuiActionModule</title>
<polygon fill="none" stroke="#000000" stroke-dasharray="1,5" points="8,-70 8,-268 1494,-268 1494,-70 8,-70"/>
</g>
<g id="clust2" class="cluster">
<title>cluster_KuiActionModule_declarations</title>
<polygon fill="none" stroke="#000000" points="37,-78 37,-130 1472,-130 1472,-78 37,-78"/>
</g>
<g id="clust14" class="cluster">
<title>cluster_KuiActionModule_exports</title>
<polygon fill="none" stroke="#000000" points="16,-208 16,-260 1486,-260 1486,-208 16,-208"/>
</g>
<!-- AdminImageDirective -->
<g id="node1" class="node">
<title>AdminImageDirective</title>
<polygon fill="#ffffb3" stroke="#000000" points="1463.951,-122 1322.049,-122 1322.049,-86 1463.951,-86 1463.951,-122"/>
<text text-anchor="middle" x="1393" y="-99.8" font-family="Times,serif" font-size="14.00" fill="#000000">AdminImageDirective</text>
</g>
<!-- KuiActionModule -->
<g id="node11" class="node">
<title>KuiActionModule</title>
<polygon fill="#8dd3c7" stroke="#000000" points="754.1499,-187 751.1499,-191 730.1499,-191 727.1499,-187 635.8501,-187 635.8501,-151 754.1499,-151 754.1499,-187"/>
<text text-anchor="middle" x="695" y="-164.8" font-family="Times,serif" font-size="14.00" fill="#000000">KuiActionModule</text>
</g>
<!-- AdminImageDirective&#45;&gt;KuiActionModule -->
<g id="edge1" class="edge">
<title>AdminImageDirective&#45;&gt;KuiActionModule</title>
<path fill="none" stroke="#000000" d="M1327.1495,-122.1686C1327.1495,-141.0898 1327.1495,-168 1327.1495,-168 1327.1495,-168 764.187,-168 764.187,-168"/>
<polygon fill="#000000" stroke="#000000" points="764.187,-164.5001 754.187,-168 764.1869,-171.5001 764.187,-164.5001"/>
</g>
<!-- ExistingNameDirective -->
<g id="node2" class="node">
<title>ExistingNameDirective</title>
<polygon fill="#ffffb3" stroke="#000000" points="1304.1783,-122 1155.8217,-122 1155.8217,-86 1304.1783,-86 1304.1783,-122"/>
<text text-anchor="middle" x="1230" y="-99.8" font-family="Times,serif" font-size="14.00" fill="#000000">ExistingNameDirective</text>
</g>
<!-- ExistingNameDirective&#45;&gt;KuiActionModule -->
<g id="edge2" class="edge">
<title>ExistingNameDirective&#45;&gt;KuiActionModule</title>
<path fill="none" stroke="#000000" d="M1256.7797,-122.302C1256.7797,-140.2699 1256.7797,-165 1256.7797,-165 1256.7797,-165 764.3232,-165 764.3232,-165"/>
<polygon fill="#000000" stroke="#000000" points="764.3232,-161.5001 754.3232,-165 764.3232,-168.5001 764.3232,-161.5001"/>
</g>
<!-- GndDirective -->
<g id="node3" class="node">
<title>GndDirective</title>
<polygon fill="#ffffb3" stroke="#000000" points="1138.1896,-122 1045.8104,-122 1045.8104,-86 1138.1896,-86 1138.1896,-122"/>
<text text-anchor="middle" x="1092" y="-99.8" font-family="Times,serif" font-size="14.00" fill="#000000">GndDirective</text>
</g>
<!-- GndDirective&#45;&gt;KuiActionModule -->
<g id="edge3" class="edge">
<title>GndDirective&#45;&gt;KuiActionModule</title>
<path fill="none" stroke="#000000" d="M1108.1149,-122.0352C1108.1149,-138.7344 1108.1149,-161 1108.1149,-161 1108.1149,-161 764.1893,-161 764.1893,-161"/>
<polygon fill="#000000" stroke="#000000" points="764.1893,-157.5001 754.1893,-161 764.1893,-164.5001 764.1893,-157.5001"/>
</g>
<!-- JdnDatepickerDirective -->
<g id="node4" class="node">
<title>JdnDatepickerDirective</title>
<polygon fill="#ffffb3" stroke="#000000" points="1027.4342,-122 878.5658,-122 878.5658,-86 1027.4342,-86 1027.4342,-122"/>
<text text-anchor="middle" x="953" y="-99.8" font-family="Times,serif" font-size="14.00" fill="#000000">JdnDatepickerDirective</text>
</g>
<!-- JdnDatepickerDirective&#45;&gt;KuiActionModule -->
<g id="edge4" class="edge">
<title>JdnDatepickerDirective&#45;&gt;KuiActionModule</title>
<path fill="none" stroke="#000000" d="M977.8224,-122.2819C977.8224,-137.9478 977.8224,-158 977.8224,-158 977.8224,-158 764.2888,-158 764.2888,-158"/>
<polygon fill="#000000" stroke="#000000" points="764.2889,-154.5001 754.2888,-158 764.2888,-161.5001 764.2889,-154.5001"/>
</g>
<!-- KeyPipe -->
<g id="node5" class="node">
<title>KeyPipe</title>
<polygon fill="#ffffb3" stroke="#000000" points="860.2093,-122 795.7907,-122 795.7907,-86 860.2093,-86 860.2093,-122"/>
<text text-anchor="middle" x="828" y="-99.8" font-family="Times,serif" font-size="14.00" fill="#000000">KeyPipe</text>
</g>
<!-- KeyPipe&#45;&gt;KuiActionModule -->
<g id="edge5" class="edge">
<title>KeyPipe&#45;&gt;KuiActionModule</title>
<path fill="none" stroke="#000000" d="M817.2152,-122.1243C817.2152,-136.7832 817.2152,-155 817.2152,-155 817.2152,-155 764.3175,-155 764.3175,-155"/>
<polygon fill="#000000" stroke="#000000" points="764.3176,-151.5001 754.3175,-155 764.3175,-158.5001 764.3176,-151.5001"/>
</g>
<!-- ProgressIndicatorComponent -->
<g id="node6" class="node">
<title>ProgressIndicatorComponent</title>
<polygon fill="#ffffb3" stroke="#000000" points="778.0716,-122 597.9284,-122 597.9284,-86 778.0716,-86 778.0716,-122"/>
<text text-anchor="middle" x="688" y="-99.8" font-family="Times,serif" font-size="14.00" fill="#000000">ProgressIndicatorComponent</text>
</g>
<!-- ProgressIndicatorComponent&#45;&gt;KuiActionModule -->
<g id="edge6" class="edge">
<title>ProgressIndicatorComponent&#45;&gt;KuiActionModule</title>
<path fill="none" stroke="#000000" d="M695,-122.1061C695,-122.1061 695,-140.991 695,-140.991"/>
<polygon fill="#000000" stroke="#000000" points="691.5001,-140.9909 695,-150.991 698.5001,-140.991 691.5001,-140.9909"/>
</g>
<!-- ResourceDialogComponent -->
<g id="node7" class="node">
<title>ResourceDialogComponent</title>
<polygon fill="#ffffb3" stroke="#000000" points="579.5211,-122 408.4789,-122 408.4789,-86 579.5211,-86 579.5211,-122"/>
<text text-anchor="middle" x="494" y="-99.8" font-family="Times,serif" font-size="14.00" fill="#000000">ResourceDialogComponent</text>
</g>
<!-- ResourceDialogComponent&#45;&gt;KuiActionModule -->
<g id="edge7" class="edge">
<title>ResourceDialogComponent&#45;&gt;KuiActionModule</title>
<path fill="none" stroke="#000000" d="M576.1352,-122.1243C576.1352,-136.7832 576.1352,-155 576.1352,-155 576.1352,-155 625.5676,-155 625.5676,-155"/>
<polygon fill="#000000" stroke="#000000" points="625.5676,-158.5001 635.5676,-155 625.5676,-151.5001 625.5676,-158.5001"/>
</g>
<!-- ReversePipe -->
<g id="node8" class="node">
<title>ReversePipe</title>
<polygon fill="#ffffb3" stroke="#000000" points="389.9734,-122 304.0266,-122 304.0266,-86 389.9734,-86 389.9734,-122"/>
<text text-anchor="middle" x="347" y="-99.8" font-family="Times,serif" font-size="14.00" fill="#000000">ReversePipe</text>
</g>
<!-- ReversePipe&#45;&gt;KuiActionModule -->
<g id="edge8" class="edge">
<title>ReversePipe&#45;&gt;KuiActionModule</title>
<path fill="none" stroke="#000000" d="M384.8617,-122.0091C384.8617,-138.0494 384.8617,-159 384.8617,-159 384.8617,-159 625.5692,-159 625.5692,-159"/>
<polygon fill="#000000" stroke="#000000" points="625.5692,-162.5001 635.5692,-159 625.5691,-155.5001 625.5692,-162.5001"/>
</g>
<!-- SortButtonComponent -->
<g id="node9" class="node">
<title>SortButtonComponent</title>
<polygon fill="#ffffb3" stroke="#000000" points="286.2842,-122 143.7158,-122 143.7158,-86 286.2842,-86 286.2842,-122"/>
<text text-anchor="middle" x="215" y="-99.8" font-family="Times,serif" font-size="14.00" fill="#000000">SortButtonComponent</text>
</g>
<!-- SortButtonComponent&#45;&gt;KuiActionModule -->
<g id="edge9" class="edge">
<title>SortButtonComponent&#45;&gt;KuiActionModule</title>
<path fill="none" stroke="#000000" d="M279.267,-122.0225C279.267,-139.3734 279.267,-163 279.267,-163 279.267,-163 625.4356,-163 625.4356,-163"/>
<polygon fill="#000000" stroke="#000000" points="625.4356,-166.5001 635.4356,-163 625.4356,-159.5001 625.4356,-166.5001"/>
</g>
<!-- SortByPipe -->
<g id="node10" class="node">
<title>SortByPipe</title>
<polygon fill="#ffffb3" stroke="#000000" points="125.0594,-122 44.9406,-122 44.9406,-86 125.0594,-86 125.0594,-122"/>
<text text-anchor="middle" x="85" y="-99.8" font-family="Times,serif" font-size="14.00" fill="#000000">SortByPipe</text>
</g>
<!-- SortByPipe&#45;&gt;KuiActionModule -->
<g id="edge10" class="edge">
<title>SortByPipe&#45;&gt;KuiActionModule</title>
<path fill="none" stroke="#000000" d="M116.6541,-122.2222C116.6541,-140.8285 116.6541,-167 116.6541,-167 116.6541,-167 625.8248,-167 625.8248,-167"/>
<polygon fill="#000000" stroke="#000000" points="625.8248,-170.5001 635.8248,-167 625.8247,-163.5001 625.8248,-170.5001"/>
</g>
<!-- AdminImageDirective  -->
<g id="node12" class="node">
<title>AdminImageDirective </title>
<polygon fill="#fb8072" stroke="#000000" points="1477.9517,-252 1332.0483,-252 1332.0483,-216 1477.9517,-216 1477.9517,-252"/>
<text text-anchor="middle" x="1405" y="-229.8" font-family="Times,serif" font-size="14.00" fill="#000000">AdminImageDirective </text>
</g>
<!-- KuiActionModule&#45;&gt;AdminImageDirective  -->
<g id="edge11" class="edge">
<title>KuiActionModule&#45;&gt;AdminImageDirective </title>
<path fill="none" stroke="#000000" stroke-dasharray="5,2" d="M754.3421,-171C923.8561,-171 1398.125,-171 1398.125,-171 1398.125,-171 1398.125,-205.7778 1398.125,-205.7778"/>
<polygon fill="#000000" stroke="#000000" points="1394.6251,-205.7778 1398.125,-215.7778 1401.6251,-205.7778 1394.6251,-205.7778"/>
</g>
<!-- ExistingNameDirective  -->
<g id="node13" class="node">
<title>ExistingNameDirective </title>
<polygon fill="#fb8072" stroke="#000000" points="1313.6785,-252 1162.3215,-252 1162.3215,-216 1313.6785,-216 1313.6785,-252"/>
<text text-anchor="middle" x="1238" y="-229.8" font-family="Times,serif" font-size="14.00" fill="#000000">ExistingNameDirective </text>
</g>
<!-- KuiActionModule&#45;&gt;ExistingNameDirective  -->
<g id="edge12" class="edge">
<title>KuiActionModule&#45;&gt;ExistingNameDirective </title>
<path fill="none" stroke="#000000" stroke-dasharray="5,2" d="M754.2674,-174C889.5473,-174 1209.4703,-174 1209.4703,-174 1209.4703,-174 1209.4703,-205.998 1209.4703,-205.998"/>
<polygon fill="#000000" stroke="#000000" points="1205.9704,-205.998 1209.4703,-215.998 1212.9704,-205.9981 1205.9704,-205.998"/>
</g>
<!-- GndDirective  -->
<g id="node14" class="node">
<title>GndDirective </title>
<polygon fill="#fb8072" stroke="#000000" points="1143.6899,-252 1048.3101,-252 1048.3101,-216 1143.6899,-216 1143.6899,-252"/>
<text text-anchor="middle" x="1096" y="-229.8" font-family="Times,serif" font-size="14.00" fill="#000000">GndDirective </text>
</g>
<!-- KuiActionModule&#45;&gt;GndDirective  -->
<g id="edge13" class="edge">
<title>KuiActionModule&#45;&gt;GndDirective </title>
<path fill="none" stroke="#000000" stroke-dasharray="5,2" d="M754.4445,-178C862.06,-178 1078.1351,-178 1078.1351,-178 1078.1351,-178 1078.1351,-205.973 1078.1351,-205.973"/>
<polygon fill="#000000" stroke="#000000" points="1074.6352,-205.973 1078.1351,-215.973 1081.6352,-205.973 1074.6352,-205.973"/>
</g>
<!-- JdnDatepickerDirective  -->
<g id="node15" class="node">
<title>JdnDatepickerDirective </title>
<polygon fill="#fb8072" stroke="#000000" points="1030.4348,-252 877.5652,-252 877.5652,-216 1030.4348,-216 1030.4348,-252"/>
<text text-anchor="middle" x="954" y="-229.8" font-family="Times,serif" font-size="14.00" fill="#000000">JdnDatepickerDirective </text>
</g>
<!-- KuiActionModule&#45;&gt;JdnDatepickerDirective  -->
<g id="edge14" class="edge">
<title>KuiActionModule&#45;&gt;JdnDatepickerDirective </title>
<path fill="none" stroke="#000000" stroke-dasharray="5,2" d="M754.4439,-181C823.5286,-181 928.1776,-181 928.1776,-181 928.1776,-181 928.1776,-205.7604 928.1776,-205.7604"/>
<polygon fill="#000000" stroke="#000000" points="924.6777,-205.7604 928.1776,-215.7604 931.6777,-205.7604 924.6777,-205.7604"/>
</g>
<!-- KeyPipe  -->
<g id="node16" class="node">
<title>KeyPipe </title>
<polygon fill="#fb8072" stroke="#000000" points="859.7096,-252 792.2904,-252 792.2904,-216 859.7096,-216 859.7096,-252"/>
<text text-anchor="middle" x="826" y="-229.8" font-family="Times,serif" font-size="14.00" fill="#000000">KeyPipe </text>
</g>
<!-- KuiActionModule&#45;&gt;KeyPipe  -->
<g id="edge15" class="edge">
<title>KuiActionModule&#45;&gt;KeyPipe </title>
<path fill="none" stroke="#000000" stroke-dasharray="5,2" d="M754.2098,-184C793.7481,-184 838.5348,-184 838.5348,-184 838.5348,-184 838.5348,-205.9489 838.5348,-205.9489"/>
<polygon fill="#000000" stroke="#000000" points="835.0349,-205.9488 838.5348,-215.9489 842.0349,-205.9489 835.0349,-205.9488"/>
</g>
<!-- ProgressIndicatorComponent  -->
<g id="node17" class="node">
<title>ProgressIndicatorComponent </title>
<polygon fill="#fb8072" stroke="#000000" points="773.5721,-252 590.4279,-252 590.4279,-216 773.5721,-216 773.5721,-252"/>
<text text-anchor="middle" x="682" y="-229.8" font-family="Times,serif" font-size="14.00" fill="#000000">ProgressIndicatorComponent </text>
</g>
<!-- KuiActionModule&#45;&gt;ProgressIndicatorComponent  -->
<g id="edge16" class="edge">
<title>KuiActionModule&#45;&gt;ProgressIndicatorComponent </title>
<path fill="none" stroke="#000000" stroke-dasharray="5,2" d="M695,-187.1061C695,-187.1061 695,-205.991 695,-205.991"/>
<polygon fill="#000000" stroke="#000000" points="691.5001,-205.9909 695,-215.991 698.5001,-205.991 691.5001,-205.9909"/>
</g>
<!-- ResourceDialogComponent  -->
<g id="node18" class="node">
<title>ResourceDialogComponent </title>
<polygon fill="#fb8072" stroke="#000000" points="572.5204,-252 397.4796,-252 397.4796,-216 572.5204,-216 572.5204,-252"/>
<text text-anchor="middle" x="485" y="-229.8" font-family="Times,serif" font-size="14.00" fill="#000000">ResourceDialogComponent </text>
</g>
<!-- KuiActionModule&#45;&gt;ResourceDialogComponent  -->
<g id="edge17" class="edge">
<title>KuiActionModule&#45;&gt;ResourceDialogComponent </title>
<path fill="none" stroke="#000000" stroke-dasharray="5,2" d="M635.814,-183C575.3804,-183 490.375,-183 490.375,-183 490.375,-183 490.375,-205.8757 490.375,-205.8757"/>
<polygon fill="#000000" stroke="#000000" points="486.8751,-205.8757 490.375,-215.8757 493.8751,-205.8757 486.8751,-205.8757"/>
</g>
<!-- ReversePipe  -->
<g id="node19" class="node">
<title>ReversePipe </title>
<polygon fill="#fb8072" stroke="#000000" points="379.9747,-252 290.0253,-252 290.0253,-216 379.9747,-216 379.9747,-252"/>
<text text-anchor="middle" x="335" y="-229.8" font-family="Times,serif" font-size="14.00" fill="#000000">ReversePipe </text>
</g>
<!-- KuiActionModule&#45;&gt;ReversePipe  -->
<g id="edge18" class="edge">
<title>KuiActionModule&#45;&gt;ReversePipe </title>
<path fill="none" stroke="#000000" stroke-dasharray="5,2" d="M635.4965,-179C534.8586,-179 341.875,-179 341.875,-179 341.875,-179 341.875,-205.9909 341.875,-205.9909"/>
<polygon fill="#000000" stroke="#000000" points="338.3751,-205.9909 341.875,-215.9909 345.3751,-205.991 338.3751,-205.9909"/>
</g>
<!-- SortButtonComponent  -->
<g id="node20" class="node">
<title>SortButtonComponent </title>
<polygon fill="#fb8072" stroke="#000000" points="272.2843,-252 125.7157,-252 125.7157,-216 272.2843,-216 272.2843,-252"/>
<text text-anchor="middle" x="199" y="-229.8" font-family="Times,serif" font-size="14.00" fill="#000000">SortButtonComponent </text>
</g>
<!-- KuiActionModule&#45;&gt;SortButtonComponent  -->
<g id="edge19" class="edge">
<title>KuiActionModule&#45;&gt;SortButtonComponent </title>
<path fill="none" stroke="#000000" stroke-dasharray="5,2" d="M635.7559,-175C505.9363,-175 207.875,-175 207.875,-175 207.875,-175 207.875,-205.9775 207.875,-205.9775"/>
<polygon fill="#000000" stroke="#000000" points="204.3751,-205.9774 207.875,-215.9775 211.3751,-205.9775 204.3751,-205.9774"/>
</g>
<!-- SortByPipe  -->
<g id="node21" class="node">
<title>SortByPipe </title>
<polygon fill="#fb8072" stroke="#000000" points="108.0582,-252 23.9418,-252 23.9418,-216 108.0582,-216 108.0582,-252"/>
<text text-anchor="middle" x="66" y="-229.8" font-family="Times,serif" font-size="14.00" fill="#000000">SortByPipe </text>
</g>
<!-- KuiActionModule&#45;&gt;SortByPipe  -->
<g id="edge20" class="edge">
<title>KuiActionModule&#45;&gt;SortByPipe </title>
<path fill="none" stroke="#000000" stroke-dasharray="5,2" d="M635.6836,-171C480.8468,-171 76.375,-171 76.375,-171 76.375,-171 76.375,-205.7778 76.375,-205.7778"/>
<polygon fill="#000000" stroke="#000000" points="72.8751,-205.7778 76.375,-215.7778 79.8751,-205.7778 72.8751,-205.7778"/>
</g>
</g>
</svg>
